<mxfile host="app.diagrams.net" agent="Mozilla/5.0 (Macintosh; Intel Mac OS X 10_15_7) AppleWebKit/537.36 (KHTML, like Gecko) Chrome/129.0.0.0 Safari/537.36" version="24.7.17">
  <diagram name="Page-1" id="CHFMe2IRVTsI6qmm4ftn">
    <mxGraphModel dx="2394" dy="1627" grid="1" gridSize="10" guides="1" tooltips="1" connect="1" arrows="1" fold="1" page="1" pageScale="1" pageWidth="850" pageHeight="1100" math="0" shadow="0">
      <root>
        <mxCell id="0" />
        <mxCell id="1" parent="0" />
        <mxCell id="whdzYoUCEXQkv3xc6MTR-1" value="&lt;b&gt;Microservice to observe&lt;/b&gt;&lt;div&gt;imalive-api&lt;/div&gt;" style="whiteSpace=wrap;html=1;aspect=fixed;fillColor=#fff2cc;strokeColor=#d6b656;" parent="1" vertex="1">
          <mxGeometry x="40" y="280" width="120" height="120" as="geometry" />
        </mxCell>
        <mxCell id="whdzYoUCEXQkv3xc6MTR-2" value="&lt;b&gt;Vector&lt;/b&gt;" style="whiteSpace=wrap;html=1;aspect=fixed;fillColor=#d5e8d4;strokeColor=#82b366;" parent="1" vertex="1">
          <mxGeometry x="350" y="140" width="410" height="410" as="geometry" />
        </mxCell>
        <mxCell id="whdzYoUCEXQkv3xc6MTR-3" value="" style="endArrow=classic;html=1;rounded=0;exitX=0.143;exitY=0.429;exitDx=0;exitDy=0;entryX=1;entryY=0.5;entryDx=0;entryDy=0;exitPerimeter=0;" parent="1" source="u7MDSzphMWqFGJtIxUIO-4" target="whdzYoUCEXQkv3xc6MTR-1" edge="1">
          <mxGeometry width="50" height="50" relative="1" as="geometry">
            <mxPoint x="270" y="280" as="sourcePoint" />
            <mxPoint x="320" y="230" as="targetPoint" />
          </mxGeometry>
        </mxCell>
        <mxCell id="whdzYoUCEXQkv3xc6MTR-4" value="&lt;b&gt;Log database / search engine&lt;br&gt;&lt;/b&gt;Quickwit" style="shape=cylinder3;whiteSpace=wrap;html=1;boundedLbl=1;backgroundOutline=1;size=15;fillColor=#d5e8d4;strokeColor=#82b366;" parent="1" vertex="1">
          <mxGeometry x="1080" y="305" width="190" height="80" as="geometry" />
        </mxCell>
        <mxCell id="whdzYoUCEXQkv3xc6MTR-6" value="" style="endArrow=classic;html=1;rounded=0;entryX=0;entryY=0.5;entryDx=0;entryDy=0;entryPerimeter=0;exitX=1;exitY=0.5;exitDx=0;exitDy=0;" parent="1" source="u7MDSzphMWqFGJtIxUIO-6" target="whdzYoUCEXQkv3xc6MTR-4" edge="1">
          <mxGeometry width="50" height="50" relative="1" as="geometry">
            <mxPoint x="480" y="240" as="sourcePoint" />
            <mxPoint x="530" y="110" as="targetPoint" />
          </mxGeometry>
        </mxCell>
        <mxCell id="whdzYoUCEXQkv3xc6MTR-7" value="&lt;b&gt;Read&lt;br&gt;stdout/stderr&lt;/b&gt;" style="text;html=1;align=center;verticalAlign=middle;whiteSpace=wrap;rounded=0;" parent="1" vertex="1">
          <mxGeometry x="230" y="350" width="60" height="30" as="geometry" />
        </mxCell>
        <mxCell id="whdzYoUCEXQkv3xc6MTR-9" value="&lt;b&gt;Push&lt;/b&gt;&lt;br&gt;http qw API / ingest" style="text;html=1;align=center;verticalAlign=middle;whiteSpace=wrap;rounded=0;" parent="1" vertex="1">
          <mxGeometry x="860" y="335" width="120" height="65" as="geometry" />
        </mxCell>
        <mxCell id="u7MDSzphMWqFGJtIxUIO-4" value="&lt;b&gt;Source&lt;/b&gt;&lt;div&gt;kubernetes&lt;/div&gt;&lt;div&gt;docker&lt;/div&gt;&lt;div&gt;etc&lt;/div&gt;" style="whiteSpace=wrap;html=1;aspect=fixed;fillColor=#e1d5e7;strokeColor=#9673a6;" vertex="1" parent="1">
          <mxGeometry x="370" y="310" width="70" height="70" as="geometry" />
        </mxCell>
        <mxCell id="u7MDSzphMWqFGJtIxUIO-5" value="&lt;b&gt;transforms&lt;/b&gt;&lt;div&gt;json mapping&lt;/div&gt;" style="whiteSpace=wrap;html=1;aspect=fixed;fillColor=#e1d5e7;strokeColor=#9673a6;" vertex="1" parent="1">
          <mxGeometry x="490" y="410" width="110" height="110" as="geometry" />
        </mxCell>
        <mxCell id="u7MDSzphMWqFGJtIxUIO-6" value="&lt;b&gt;Sink&lt;/b&gt;&lt;div&gt;http webhook&lt;/div&gt;" style="whiteSpace=wrap;html=1;aspect=fixed;fillColor=#e1d5e7;strokeColor=#9673a6;" vertex="1" parent="1">
          <mxGeometry x="630" y="290" width="110" height="110" as="geometry" />
        </mxCell>
        <mxCell id="u7MDSzphMWqFGJtIxUIO-8" value="" style="endArrow=classic;html=1;rounded=0;entryX=0;entryY=0.5;entryDx=0;entryDy=0;" edge="1" parent="1" source="u7MDSzphMWqFGJtIxUIO-4" target="u7MDSzphMWqFGJtIxUIO-5">
          <mxGeometry width="50" height="50" relative="1" as="geometry">
            <mxPoint x="390" y="350" as="sourcePoint" />
            <mxPoint x="170" y="355" as="targetPoint" />
          </mxGeometry>
        </mxCell>
        <mxCell id="u7MDSzphMWqFGJtIxUIO-9" value="" style="endArrow=classic;html=1;rounded=0;exitX=1;exitY=0.5;exitDx=0;exitDy=0;entryX=0.5;entryY=1;entryDx=0;entryDy=0;" edge="1" parent="1" source="u7MDSzphMWqFGJtIxUIO-5" target="u7MDSzphMWqFGJtIxUIO-6">
          <mxGeometry width="50" height="50" relative="1" as="geometry">
            <mxPoint x="435" y="390" as="sourcePoint" />
            <mxPoint x="500" y="505" as="targetPoint" />
          </mxGeometry>
        </mxCell>
      </root>
    </mxGraphModel>
  </diagram>
</mxfile>
